ffmpeg version 8.1.1-full_build-www.gyan.dev Copyright (c) 2000-2026 the FFmpeg developers
  built with gcc 15.2.0 (Rev13, Built by MSYS2 project)
  configuration: --enable-gpl --enable-version3 --enable-static --disable-w32threads --disable-autodetect --enable-cairo --enable-fontconfig --enable-iconv --enable-gnutls --enable-lcms2 --enable-libxml2 --enable-gmp --enable-bzlib --enable-lzma --enable-libsnappy --enable-zlib --enable-librist --enable-libsrt --enable-libssh --enable-libzmq --enable-avisynth --enable-libbluray --enable-libcaca --enable-libdvdnav --enable-libdvdread --enable-sdl2 --enable-libaribb24 --enable-libaribcaption --enable-libdav1d --enable-libdavs2 --enable-libopenjpeg --enable-libquirc --enable-libuavs3d --enable-libxevd --enable-libzvbi --enable-liboapv --enable-libqrencode --enable-librav1e --enable-libsvtav1 --enable-libvvenc --enable-libwebp --enable-libx264 --enable-libx265 --enable-libxavs2 --enable-libxeve --enable-libxvid --enable-libaom --enable-libjxl --enable-libsvtjpegxs --enable-libvpx --enable-mediafoundation --enable-libass --enable-frei0r --enable-libfreetype --enable-libfribidi --enable-libharfbuzz --enable-liblensfun --enable-libvidstab --enable-libvmaf --enable-libzimg --enable-amf --enable-cuda-llvm --enable-cuvid --enable-dxva2 --enable-d3d11va --enable-d3d12va --enable-ffnvcodec --enable-libvpl --enable-nvdec --enable-nvenc --enable-vaapi --enable-libshaderc --enable-vulkan --enable-libplacebo --enable-opencl --enable-libcdio --enable-openal --enable-libgme --enable-libmodplug --enable-libopenmpt --enable-libopencore-amrwb --enable-libmp3lame --enable-libshine --enable-libtheora --enable-libtwolame --enable-libvo-amrwbenc --enable-libcodec2 --enable-libilbc --enable-libgsm --enable-liblc3 --enable-libopencore-amrnb --enable-libopus --enable-libspeex --enable-libvorbis --enable-ladspa --enable-libbs2b --enable-libflite --enable-libmysofa --enable-librubberband --enable-libsoxr --enable-chromaprint --enable-whisper
  libavutil      60. 26.101 / 60. 26.101
  libavcodec     62. 28.101 / 62. 28.101
  libavformat    62. 12.101 / 62. 12.101
  libavdevice    62.  3.101 / 62.  3.101
  libavfilter    11. 14.101 / 11. 14.101
  libswscale      9.  5.101 /  9.  5.101
  libswresample   6.  3.101 /  6.  3.101
Input #0, mov,mp4,m4a,3gp,3g2,mj2, from 'D:\PythonProjects\viral-cutter-ai\benchmarks\runs\20260510_160345\emeritos_gameplay\compare_podcast\cuts_raw\segment_1_17-47_41_18-35_79.mp4':
  Metadata:
    major_brand     : isom
    minor_version   : 512
    compatible_brands: isomiso2avc1mp41
    encoder         : Lavf62.12.101
  Duration: 00:00:48.38, start: 0.000000, bitrate: 7025 kb/s
  Stream #0:0[0x1](und): Video: h264 (High) (avc1 / 0x31637661), yuvj420p(pc, bt470bg/unknown/unknown, progressive), 1080x1920 [SAR 1:1 DAR 9:16], 6817 kb/s, 59.94 fps, 59.94 tbr, 60k tbn, start 0.033000 (default)
    Metadata:
      handler_name    : VideoHandler
      encoder         : Lavc62.28.101 libx264
  Stream #0:1[0x2](eng): Audio: aac (LC) (mp4a / 0x6134706D), 48000 Hz, stereo, fltp, 200 kb/s (default)
    Metadata:
      handler_name    : SoundHandler
[Parsed_ass_0 @ 000001d48045e780] libass API version: 0x1704000
[Parsed_ass_0 @ 000001d48045e780] libass source: commit: 0.17.4-27-g1cbba0a8818c83495114b3c2b5730410eecbdb2c
[Parsed_ass_0 @ 000001d48045e780] Shaper: FriBidi 1.0.16 (SIMPLE) HarfBuzz-ng 14.2.0 (COMPLEX)
[Parsed_ass_0 @ 000001d48045e780] Using font provider directwrite (with GDI)
[Parsed_ass_0 @ 000001d48045e780] Added subtitle file: 'D:\PythonProjects\viral-cutter-ai\benchmarks\runs\20260510_160345\emeritos_gameplay\compare_podcast\cuts_raw\segment_1_17-47_41_18-35_79.ass' (7 styles, 25 events)
Stream mapping:
  Stream #0:0 -> #0:0 (h264 (native) -> h264 (libx264))
  Stream #0:1 -> #0:1 (aac (native) -> aac (native))
Press [q] to stop, [?] for help
[Parsed_ass_0 @ 000001d48045e040] libass API version: 0x1704000
[Parsed_ass_0 @ 000001d48045e040] libass source: commit: 0.17.4-27-g1cbba0a8818c83495114b3c2b5730410eecbdb2c
[Parsed_ass_0 @ 000001d48045e040] Shaper: FriBidi 1.0.16 (SIMPLE) HarfBuzz-ng 14.2.0 (COMPLEX)
[Parsed_ass_0 @ 000001d48045e040] Using font provider directwrite (with GDI)
[Parsed_ass_0 @ 000001d48045e040] Added subtitle file: 'D:\PythonProjects\viral-cutter-ai\benchmarks\runs\20260510_160345\emeritos_gameplay\compare_podcast\cuts_raw\segment_1_17-47_41_18-35_79.ass' (7 styles, 25 events)
[libx264 @ 000001d4821ee940] using SAR=1/1
[libx264 @ 000001d4821ee940] using cpu capabilities: MMX2 SSE2Fast SSSE3 SSE4.2 AVX FMA3 BMI2 AVX2 AVX512
[libx264 @ 000001d4821ee940] profile High, level 4.2, 4:2:0, 8-bit
[libx264 @ 000001d4821ee940] 264 - core 165 r3223 0480cb0 - H.264/MPEG-4 AVC codec - Copyleft 2003-2025 - http://www.videolan.org/x264.html - options: cabac=1 ref=3 deblock=1:0:0 analyse=0x3:0x113 me=hex subme=7 psy=1 psy_rd=1.00:0.00 mixed_ref=1 me_range=16 chroma_me=1 trellis=1 8x8dct=1 cqm=0 deadzone=21,11 fast_pskip=1 chroma_qp_offset=-2 threads=24 lookahead_threads=4 sliced_threads=0 nr=0 decimate=1 interlaced=0 bluray_compat=0 constrained_intra=0 bframes=3 b_pyramid=2 b_adapt=1 b_bias=0 direct=1 weightb=1 open_gop=0 weightp=2 keyint=250 keyint_min=25 scenecut=40 intra_refresh=0 rc_lookahead=40 rc=crf mbtree=1 crf=23.0 qcomp=0.60 qpmin=0 qpmax=69 qpstep=4 ip_ratio=1.40 aq=1:1.00
Output #0, mp4, to 'D:\PythonProjects\viral-cutter-ai\benchmarks\runs\20260510_160345\emeritos_gameplay\compare_podcast\cuts_subtitles\segment_1_17-47_41_18-35_79.mp4':
  Metadata:
    major_brand     : isom
    minor_version   : 512
    compatible_brands: isomiso2avc1mp41
    encoder         : Lavf62.12.101
  Stream #0:0(und): Video: h264 (avc1 / 0x31637661), yuvj420p(pc, bt470bg/unknown/unknown, progressive), 1080x1920 [SAR 1:1 DAR 9:16], q=2-31, 59.94 fps, 60k tbn (default)
    Metadata:
      encoder         : Lavc62.28.101 libx264
      handler_name    : VideoHandler
    Side data:
      CPB properties: bitrate max/min/avg: 0/0/0 buffer size: 0 vbv_delay: N/A
  Stream #0:1(eng): Audio: aac (LC) (mp4a / 0x6134706D), 48000 Hz, stereo, fltp, 192 kb/s (default)
    Metadata:
      encoder         : Lavc62.28.101 aac
      handler_name    : SoundHandler
[Parsed_ass_0 @ 000001d48045e040] fontselect: (Arial Black, 400, 0) -> Arial-Black, 0, Arial-Black
[Parsed_ass_0 @ 000001d48045e040] fontselect: (Arial Black, 700, 0) -> Arial-Black, 0, Arial-Black
frame=   33 fps=0.0 q=31.0 size=     256KiB time=00:00:00.55 bitrate=3809.9kbits/s speed=1.06x elapsed=0:00:00.51    frame=  121 fps=117 q=31.0 size=    1536KiB time=00:00:02.01 bitrate=6233.4kbits/s speed=1.96x elapsed=0:00:01.03    frame=  220 fps=142 q=31.0 size=    2560KiB time=00:00:03.67 bitrate=5713.9kbits/s speed=2.37x elapsed=0:00:01.54    frame=  311 fps=151 q=31.0 size=    3840KiB time=00:00:05.18 bitrate=6062.9kbits/s speed=2.51x elapsed=0:00:02.06    frame=  416 fps=161 q=31.0 size=    4608KiB time=00:00:06.94 bitrate=5439.1kbits/s speed=2.69x elapsed=0:00:02.57    frame=  529 fps=171 q=31.0 size=    5632KiB time=00:00:08.82 bitrate=5227.8kbits/s speed=2.85x elapsed=0:00:03.09    frame=  641 fps=177 q=31.0 size=    6656KiB time=00:00:10.69 bitrate=5098.8kbits/s speed=2.96x elapsed=0:00:03.61    frame=  738 fps=179 q=31.0 size=    7936KiB time=00:00:12.31 bitrate=5280.3kbits/s speed=2.98x elapsed=0:00:04.12    frame=  824 fps=177 q=31.0 size=    8960KiB time=00:00:13.74 bitrate=5339.4kbits/s speed=2.96x elapsed=0:00:04.65    frame=  920 fps=178 q=31.0 size=    9984KiB time=00:00:15.34 bitrate=5328.8kbits/s speed=2.97x elapsed=0:00:05.16    frame= 1024 fps=181 q=31.0 size=   11008KiB time=00:00:17.08 bitrate=5278.6kbits/s speed=3.01x elapsed=0:00:05.67    frame= 1134 fps=183 q=31.0 size=   12032KiB time=00:00:18.91 bitrate=5210.0kbits/s speed=3.06x elapsed=0:00:06.19    frame= 1250 fps=186 q=31.0 size=   12800KiB time=00:00:20.85 bitrate=5028.2kbits/s speed=3.11x elapsed=0:00:06.70    frame= 1359 fps=188 q=31.0 size=   13824KiB time=00:00:22.67 bitrate=4994.9kbits/s speed=3.14x elapsed=0:00:07.22    frame= 1464 fps=189 q=31.0 size=   14848KiB time=00:00:24.42 bitrate=4980.1kbits/s speed=3.16x elapsed=0:00:07.73    frame= 1577 fps=191 q=31.0 size=   15616KiB time=00:00:26.30 bitrate=4862.4kbits/s speed=3.18x elapsed=0:00:08.26    frame= 1677 fps=191 q=31.0 size=   16896KiB time=00:00:27.97 bitrate=4947.2kbits/s speed=3.19x elapsed=0:00:08.76    frame= 1779 fps=192 q=31.0 size=   17664KiB time=00:00:29.67 bitrate=4875.5kbits/s speed= 3.2x elapsed=0:00:09.28    frame= 1881 fps=192 q=31.0 size=   19200KiB time=00:00:31.38 bitrate=5012.1kbits/s speed= 3.2x elapsed=0:00:09.80    frame= 1984 fps=192 q=31.0 size=   20224KiB time=00:00:33.09 bitrate=5005.3kbits/s speed=3.21x elapsed=0:00:10.31    frame= 2095 fps=193 q=31.0 size=   21248KiB time=00:00:34.95 bitrate=4980.1kbits/s speed=3.23x elapsed=0:00:10.82    frame= 2199 fps=194 q=31.0 size=   22272KiB time=00:00:36.68 bitrate=4973.3kbits/s speed=3.23x elapsed=0:00:11.34    frame= 2312 fps=195 q=31.0 size=   23552KiB time=00:00:38.57 bitrate=5002.0kbits/s speed=3.25x elapsed=0:00:11.86    frame= 2403 fps=194 q=31.0 size=   24320KiB time=00:00:40.09 bitrate=4969.6kbits/s speed=3.24x elapsed=0:00:12.38    frame= 2494 fps=193 q=31.0 size=   25600KiB time=00:00:41.60 bitrate=5040.2kbits/s speed=3.23x elapsed=0:00:12.89    frame= 2591 fps=193 q=31.0 size=   26880KiB time=00:00:43.22 bitrate=5094.1kbits/s speed=3.22x elapsed=0:00:13.40    frame= 2685 fps=193 q=31.0 size=   28160KiB time=00:00:44.79 bitrate=5149.9kbits/s speed=3.21x elapsed=0:00:13.93    frame= 2774 fps=192 q=31.0 size=   29440KiB time=00:00:46.27 bitrate=5211.2kbits/s speed=3.21x elapsed=0:00:14.43    [out#0/mp4 @ 000001d4803e0300] video:29800KiB audio:1173KiB subtitle:0KiB other streams:0KiB global headers:0KiB muxing overhead: 0.243959%
frame= 2898 fps=194 q=-1.0 Lsize=   31048KiB time=00:00:48.34 bitrate=5260.7kbits/s speed=3.24x elapsed=0:00:14.90    
[libx264 @ 000001d4821ee940] frame I:17    Avg QP:22.21  size: 58215
[libx264 @ 000001d4821ee940] frame P:1407  Avg QP:24.69  size: 15956
[libx264 @ 000001d4821ee940] frame B:1474  Avg QP:27.69  size:  4799
[libx264 @ 000001d4821ee940] consecutive B-frames:  6.4% 75.8%  4.6% 13.3%
[libx264 @ 000001d4821ee940] mb I  I16..4: 17.1% 70.7% 12.2%
[libx264 @ 000001d4821ee940] mb P  I16..4:  7.3% 14.6%  0.6%  P16..4: 35.1%  3.0%  1.1%  0.0%  0.0%    skip:38.3%
[libx264 @ 000001d4821ee940] mb B  I16..4:  0.9%  1.3%  0.0%  B16..8: 26.7%  0.8%  0.1%  direct: 0.4%  skip:69.8%  L0:40.4% L1:57.8% BI: 1.7%
[libx264 @ 000001d4821ee940] 8x8 transform intra:64.7% inter:88.6%
[libx264 @ 000001d4821ee940] coded y,uvDC,uvAC intra: 22.4% 30.1% 3.3% inter: 4.3% 6.9% 0.0%
[libx264 @ 000001d4821ee940] i16 v,h,dc,p: 21% 46%  9% 24%
[libx264 @ 000001d4821ee940] i8 v,h,dc,ddl,ddr,vr,hd,vl,hu: 22% 30% 26%  3%  4%  3%  6%  2%  4%
[libx264 @ 000001d4821ee940] i4 v,h,dc,ddl,ddr,vr,hd,vl,hu: 21% 34% 11%  5%  7%  5%  8%  4%  6%
[libx264 @ 000001d4821ee940] i8c dc,h,v,p: 62% 22% 13%  3%
[libx264 @ 000001d4821ee940] Weighted P-Frames: Y:0.1% UV:0.0%
[libx264 @ 000001d4821ee940] ref P L0: 75.3%  8.3% 13.2%  3.2%
[libx264 @ 000001d4821ee940] ref B L0: 91.7%  7.9%  0.5%
[libx264 @ 000001d4821ee940] ref B L1: 99.4%  0.6%
[libx264 @ 000001d4821ee940] kb/s:5049.04
[aac @ 000001d482311a80] Qavg: 595.035
ffmpeg version 8.1.1-full_build-www.gyan.dev Copyright (c) 2000-2026 the FFmpeg developers
  built with gcc 15.2.0 (Rev13, Built by MSYS2 project)
  configuration: --enable-gpl --enable-version3 --enable-static --disable-w32threads --disable-autodetect --enable-cairo --enable-fontconfig --enable-iconv --enable-gnutls --enable-lcms2 --enable-libxml2 --enable-gmp --enable-bzlib --enable-lzma --enable-libsnappy --enable-zlib --enable-librist --enable-libsrt --enable-libssh --enable-libzmq --enable-avisynth --enable-libbluray --enable-libcaca --enable-libdvdnav --enable-libdvdread --enable-sdl2 --enable-libaribb24 --enable-libaribcaption --enable-libdav1d --enable-libdavs2 --enable-libopenjpeg --enable-libquirc --enable-libuavs3d --enable-libxevd --enable-libzvbi --enable-liboapv --enable-libqrencode --enable-librav1e --enable-libsvtav1 --enable-libvvenc --enable-libwebp --enable-libx264 --enable-libx265 --enable-libxavs2 --enable-libxeve --enable-libxvid --enable-libaom --enable-libjxl --enable-libsvtjpegxs --enable-libvpx --enable-mediafoundation --enable-libass --enable-frei0r --enable-libfreetype --enable-libfribidi --enable-libharfbuzz --enable-liblensfun --enable-libvidstab --enable-libvmaf --enable-libzimg --enable-amf --enable-cuda-llvm --enable-cuvid --enable-dxva2 --enable-d3d11va --enable-d3d12va --enable-ffnvcodec --enable-libvpl --enable-nvdec --enable-nvenc --enable-vaapi --enable-libshaderc --enable-vulkan --enable-libplacebo --enable-opencl --enable-libcdio --enable-openal --enable-libgme --enable-libmodplug --enable-libopenmpt --enable-libopencore-amrwb --enable-libmp3lame --enable-libshine --enable-libtheora --enable-libtwolame --enable-libvo-amrwbenc --enable-libcodec2 --enable-libilbc --enable-libgsm --enable-liblc3 --enable-libopencore-amrnb --enable-libopus --enable-libspeex --enable-libvorbis --enable-ladspa --enable-libbs2b --enable-libflite --enable-libmysofa --enable-librubberband --enable-libsoxr --enable-chromaprint --enable-whisper
  libavutil      60. 26.101 / 60. 26.101
  libavcodec     62. 28.101 / 62. 28.101
  libavformat    62. 12.101 / 62. 12.101
  libavdevice    62.  3.101 / 62.  3.101
  libavfilter    11. 14.101 / 11. 14.101
  libswscale      9.  5.101 /  9.  5.101
  libswresample   6.  3.101 /  6.  3.101
Input #0, mov,mp4,m4a,3gp,3g2,mj2, from 'D:\PythonProjects\viral-cutter-ai\benchmarks\runs\20260510_160345\emeritos_gameplay\compare_podcast\cuts_raw\segment_2_16-38_20_17-28_11.mp4':
  Metadata:
    major_brand     : isom
    minor_version   : 512
    compatible_brands: isomiso2avc1mp41
    encoder         : Lavf62.12.101
  Duration: 00:00:49.92, start: 0.000000, bitrate: 5088 kb/s
  Stream #0:0[0x1](und): Video: h264 (High) (avc1 / 0x31637661), yuvj420p(pc, bt470bg/unknown/unknown, progressive), 1080x1920 [SAR 1:1 DAR 9:16], 4883 kb/s, 59.94 fps, 59.94 tbr, 60k tbn, start 0.033000 (default)
    Metadata:
      handler_name    : VideoHandler
      encoder         : Lavc62.28.101 libx264
  Stream #0:1[0x2](eng): Audio: aac (LC) (mp4a / 0x6134706D), 48000 Hz, stereo, fltp, 195 kb/s (default)
    Metadata:
      handler_name    : SoundHandler
[Parsed_ass_0 @ 0000019447faff00] libass API version: 0x1704000
[Parsed_ass_0 @ 0000019447faff00] libass source: commit: 0.17.4-27-g1cbba0a8818c83495114b3c2b5730410eecbdb2c
[Parsed_ass_0 @ 0000019447faff00] Shaper: FriBidi 1.0.16 (SIMPLE) HarfBuzz-ng 14.2.0 (COMPLEX)
[Parsed_ass_0 @ 0000019447faff00] Using font provider directwrite (with GDI)
[Parsed_ass_0 @ 0000019447faff00] Added subtitle file: 'D:\PythonProjects\viral-cutter-ai\benchmarks\runs\20260510_160345\emeritos_gameplay\compare_podcast\cuts_raw\segment_2_16-38_20_17-28_11.ass' (7 styles, 26 events)
Stream mapping:
  Stream #0:0 -> #0:0 (h264 (native) -> h264 (libx264))
  Stream #0:1 -> #0:1 (aac (native) -> aac (native))
Press [q] to stop, [?] for help
[Parsed_ass_0 @ 0000019447fafac0] libass API version: 0x1704000
[Parsed_ass_0 @ 0000019447fafac0] libass source: commit: 0.17.4-27-g1cbba0a8818c83495114b3c2b5730410eecbdb2c
[Parsed_ass_0 @ 0000019447fafac0] Shaper: FriBidi 1.0.16 (SIMPLE) HarfBuzz-ng 14.2.0 (COMPLEX)
[Parsed_ass_0 @ 0000019447fafac0] Using font provider directwrite (with GDI)
[Parsed_ass_0 @ 0000019447fafac0] Added subtitle file: 'D:\PythonProjects\viral-cutter-ai\benchmarks\runs\20260510_160345\emeritos_gameplay\compare_podcast\cuts_raw\segment_2_16-38_20_17-28_11.ass' (7 styles, 26 events)
[Parsed_ass_0 @ 0000019447fafac0] fontselect: (Arial Black, 400, 0) -> Arial-Black, 0, Arial-Black
[Parsed_ass_0 @ 0000019447fafac0] fontselect: (Arial Black, 700, 0) -> Arial-Black, 0, Arial-Black
[libx264 @ 0000019447fb0600] using SAR=1/1
[libx264 @ 0000019447fb0600] using cpu capabilities: MMX2 SSE2Fast SSSE3 SSE4.2 AVX FMA3 BMI2 AVX2 AVX512
[libx264 @ 0000019447fb0600] profile High, level 4.2, 4:2:0, 8-bit
[libx264 @ 0000019447fb0600] 264 - core 165 r3223 0480cb0 - H.264/MPEG-4 AVC codec - Copyleft 2003-2025 - http://www.videolan.org/x264.html - options: cabac=1 ref=3 deblock=1:0:0 analyse=0x3:0x113 me=hex subme=7 psy=1 psy_rd=1.00:0.00 mixed_ref=1 me_range=16 chroma_me=1 trellis=1 8x8dct=1 cqm=0 deadzone=21,11 fast_pskip=1 chroma_qp_offset=-2 threads=24 lookahead_threads=4 sliced_threads=0 nr=0 decimate=1 interlaced=0 bluray_compat=0 constrained_intra=0 bframes=3 b_pyramid=2 b_adapt=1 b_bias=0 direct=1 weightb=1 open_gop=0 weightp=2 keyint=250 keyint_min=25 scenecut=40 intra_refresh=0 rc_lookahead=40 rc=crf mbtree=1 crf=23.0 qcomp=0.60 qpmin=0 qpmax=69 qpstep=4 ip_ratio=1.40 aq=1:1.00
Output #0, mp4, to 'D:\PythonProjects\viral-cutter-ai\benchmarks\runs\20260510_160345\emeritos_gameplay\compare_podcast\cuts_subtitles\segment_2_16-38_20_17-28_11.mp4':
  Metadata:
    major_brand     : isom
    minor_version   : 512
    compatible_brands: isomiso2avc1mp41
    encoder         : Lavf62.12.101
  Stream #0:0(und): Video: h264 (avc1 / 0x31637661), yuvj420p(pc, bt470bg/unknown/unknown, progressive), 1080x1920 [SAR 1:1 DAR 9:16], q=2-31, 59.94 fps, 60k tbn (default)
    Metadata:
      encoder         : Lavc62.28.101 libx264
      handler_name    : VideoHandler
    Side data:
      CPB properties: bitrate max/min/avg: 0/0/0 buffer size: 0 vbv_delay: N/A
  Stream #0:1(eng): Audio: aac (LC) (mp4a / 0x6134706D), 48000 Hz, stereo, fltp, 192 kb/s (default)
    Metadata:
      encoder         : Lavc62.28.101 aac
      handler_name    : SoundHandler
frame=  179 fps=0.0 q=31.0 size=     256KiB time=00:00:02.98 bitrate= 702.4kbits/s speed=5.83x elapsed=0:00:00.51    frame=  366 fps=358 q=31.0 size=    1280KiB time=00:00:06.10 bitrate=1717.3kbits/s speed=5.97x elapsed=0:00:01.02    frame=  603 fps=389 q=31.0 size=    2048KiB time=00:00:10.06 bitrate=1667.7kbits/s speed=6.49x elapsed=0:00:01.54    frame=  766 fps=373 q=31.0 size=    2816KiB time=00:00:12.77 bitrate=1805.2kbits/s speed=6.23x elapsed=0:00:02.05    frame=  905 fps=352 q=31.0 size=    3840KiB time=00:00:15.09 bitrate=2083.5kbits/s speed=5.87x elapsed=0:00:02.57    frame= 1017 fps=329 q=31.0 size=    4864KiB time=00:00:16.96 bitrate=2348.5kbits/s speed=5.48x elapsed=0:00:03.09    frame= 1099 fps=305 q=31.0 size=    5888KiB time=00:00:18.33 bitrate=2630.8kbits/s speed=5.09x elapsed=0:00:03.60    frame= 1211 fps=294 q=31.0 size=    6912KiB time=00:00:20.20 bitrate=2802.7kbits/s speed=4.91x elapsed=0:00:04.11    frame= 1311 fps=283 q=31.0 size=    7168KiB time=00:00:21.87 bitrate=2684.8kbits/s speed=4.72x elapsed=0:00:04.63    frame= 1400 fps=272 q=31.0 size=    7680KiB time=00:00:23.35 bitrate=2693.7kbits/s speed=4.54x elapsed=0:00:05.14    frame= 1483 fps=262 q=31.0 size=    8704KiB time=00:00:24.74 bitrate=2882.0kbits/s speed=4.37x elapsed=0:00:05.66    frame= 1573 fps=255 q=31.0 size=    9472KiB time=00:00:26.24 bitrate=2956.8kbits/s speed=4.25x elapsed=0:00:06.17    frame= 1656 fps=247 q=31.0 size=   10496KiB time=00:00:27.62 bitrate=3112.2kbits/s speed=4.12x elapsed=0:00:06.69    frame= 1725 fps=239 q=31.0 size=   11776KiB time=00:00:28.77 bitrate=3352.1kbits/s speed=3.99x elapsed=0:00:07.20    frame= 1813 fps=235 q=31.0 size=   12800KiB time=00:00:30.24 bitrate=3466.7kbits/s speed=3.91x elapsed=0:00:07.73    frame= 1897 fps=230 q=31.0 size=   14080KiB time=00:00:31.64 bitrate=3644.5kbits/s speed=3.84x elapsed=0:00:08.24    frame= 2003 fps=229 q=31.0 size=   14848KiB time=00:00:33.41 bitrate=3640.0kbits/s speed=3.81x elapsed=0:00:08.76    frame= 2171 fps=234 q=31.0 size=   15616KiB time=00:00:36.21 bitrate=3532.0kbits/s speed=3.91x elapsed=0:00:09.27    frame= 2378 fps=243 q=31.0 size=   16128KiB time=00:00:39.67 bitrate=3330.3kbits/s speed=4.05x elapsed=0:00:09.79    [Parsed_ass_0 @ 0000019447fafac0] Glyph 0x3051 not found, selecting one more font for (Arial Black, 400, 0)
[Parsed_ass_0 @ 0000019447fafac0] fontselect: (Arial Black, 400, 0) -> YuGothicUI-Semibold, 2, YuGothicUI-Semibold
frame= 2534 fps=246 q=31.0 size=   16640KiB time=00:00:42.27 bitrate=3224.4kbits/s speed= 4.1x elapsed=0:00:10.30    frame= 2614 fps=242 q=31.0 size=   17664KiB time=00:00:43.61 bitrate=3318.1kbits/s speed=4.03x elapsed=0:00:10.81    frame= 2718 fps=240 q=31.0 size=   18432KiB time=00:00:45.34 bitrate=3329.9kbits/s speed=   4x elapsed=0:00:11.34    frame= 2807 fps=237 q=31.0 size=   19456KiB time=00:00:46.83 bitrate=3403.4kbits/s speed=3.95x elapsed=0:00:11.85    frame= 2905 fps=235 q=31.0 size=   19968KiB time=00:00:48.46 bitrate=3375.2kbits/s speed=3.92x elapsed=0:00:12.36    [out#0/mp4 @ 0000019447f2ef40] video:19712KiB audio:1189KiB subtitle:0KiB other streams:0KiB global headers:0KiB muxing overhead: 0.370750%
frame= 2990 fps=236 q=-1.0 Lsize=   20978KiB time=00:00:49.88 bitrate=3445.1kbits/s speed=3.93x elapsed=0:00:12.67    
[libx264 @ 0000019447fb0600] frame I:18    Avg QP:20.63  size: 64399
[libx264 @ 0000019447fb0600] frame P:1306  Avg QP:22.77  size: 11283
[libx264 @ 0000019447fb0600] frame B:1666  Avg QP:26.41  size:  2575
[libx264 @ 0000019447fb0600] consecutive B-frames:  8.6% 49.7%  5.2% 36.5%
[libx264 @ 0000019447fb0600] mb I  I16..4: 19.9% 66.5% 13.6%
[libx264 @ 0000019447fb0600] mb P  I16..4:  7.1% 16.7%  0.4%  P16..4: 21.4%  1.9%  0.8%  0.0%  0.0%    skip:51.7%
[libx264 @ 0000019447fb0600] mb B  I16..4:  1.2%  1.3%  0.0%  B16..8: 13.0%  0.4%  0.0%  direct: 0.9%  skip:83.2%  L0:38.3% L1:59.7% BI: 2.0%
[libx264 @ 0000019447fb0600] 8x8 transform intra:66.8% inter:88.3%
[libx264 @ 0000019447fb0600] coded y,uvDC,uvAC intra: 15.7% 25.5% 3.2% inter: 2.6% 5.6% 0.1%
[libx264 @ 0000019447fb0600] i16 v,h,dc,p: 25% 46%  7% 22%
[libx264 @ 0000019447fb0600] i8 v,h,dc,ddl,ddr,vr,hd,vl,hu: 32% 26% 25%  3%  3%  3%  4%  2%  3%
[libx264 @ 0000019447fb0600] i4 v,h,dc,ddl,ddr,vr,hd,vl,hu: 26% 31% 10%  4%  6%  6%  7%  5%  5%
[libx264 @ 0000019447fb0600] i8c dc,h,v,p: 66% 18% 13%  3%
[libx264 @ 0000019447fb0600] Weighted P-Frames: Y:9.0% UV:4.3%
[libx264 @ 0000019447fb0600] ref P L0: 72.8% 10.4% 13.5%  3.2%  0.1%
[libx264 @ 0000019447fb0600] ref B L0: 89.1%  9.9%  1.0%
[libx264 @ 0000019447fb0600] ref B L1: 98.9%  1.1%
[libx264 @ 0000019447fb0600] kb/s:3237.01
[aac @ 000001944a3eae40] Qavg: 594.346
ffmpeg version 8.1.1-full_build-www.gyan.dev Copyright (c) 2000-2026 the FFmpeg developers
  built with gcc 15.2.0 (Rev13, Built by MSYS2 project)
  configuration: --enable-gpl --enable-version3 --enable-static --disable-w32threads --disable-autodetect --enable-cairo --enable-fontconfig --enable-iconv --enable-gnutls --enable-lcms2 --enable-libxml2 --enable-gmp --enable-bzlib --enable-lzma --enable-libsnappy --enable-zlib --enable-librist --enable-libsrt --enable-libssh --enable-libzmq --enable-avisynth --enable-libbluray --enable-libcaca --enable-libdvdnav --enable-libdvdread --enable-sdl2 --enable-libaribb24 --enable-libaribcaption --enable-libdav1d --enable-libdavs2 --enable-libopenjpeg --enable-libquirc --enable-libuavs3d --enable-libxevd --enable-libzvbi --enable-liboapv --enable-libqrencode --enable-librav1e --enable-libsvtav1 --enable-libvvenc --enable-libwebp --enable-libx264 --enable-libx265 --enable-libxavs2 --enable-libxeve --enable-libxvid --enable-libaom --enable-libjxl --enable-libsvtjpegxs --enable-libvpx --enable-mediafoundation --enable-libass --enable-frei0r --enable-libfreetype --enable-libfribidi --enable-libharfbuzz --enable-liblensfun --enable-libvidstab --enable-libvmaf --enable-libzimg --enable-amf --enable-cuda-llvm --enable-cuvid --enable-dxva2 --enable-d3d11va --enable-d3d12va --enable-ffnvcodec --enable-libvpl --enable-nvdec --enable-nvenc --enable-vaapi --enable-libshaderc --enable-vulkan --enable-libplacebo --enable-opencl --enable-libcdio --enable-openal --enable-libgme --enable-libmodplug --enable-libopenmpt --enable-libopencore-amrwb --enable-libmp3lame --enable-libshine --enable-libtheora --enable-libtwolame --enable-libvo-amrwbenc --enable-libcodec2 --enable-libilbc --enable-libgsm --enable-liblc3 --enable-libopencore-amrnb --enable-libopus --enable-libspeex --enable-libvorbis --enable-ladspa --enable-libbs2b --enable-libflite --enable-libmysofa --enable-librubberband --enable-libsoxr --enable-chromaprint --enable-whisper
  libavutil      60. 26.101 / 60. 26.101
  libavcodec     62. 28.101 / 62. 28.101
  libavformat    62. 12.101 / 62. 12.101
  libavdevice    62.  3.101 / 62.  3.101
  libavfilter    11. 14.101 / 11. 14.101
  libswscale      9.  5.101 /  9.  5.101
  libswresample   6.  3.101 /  6.  3.101
Input #0, mov,mp4,m4a,3gp,3g2,mj2, from 'D:\PythonProjects\viral-cutter-ai\benchmarks\runs\20260510_160345\emeritos_gameplay\compare_podcast\cuts_raw\segment_3_04-58_65_05-58_35.mp4':
  Metadata:
    major_brand     : isom
    minor_version   : 512
    compatible_brands: isomiso2avc1mp41
    encoder         : Lavf62.12.101
  Duration: 00:00:59.71, start: 0.000000, bitrate: 6005 kb/s
  Stream #0:0[0x1](und): Video: h264 (High) (avc1 / 0x31637661), yuvj420p(pc, bt470bg/unknown/unknown, progressive), 1080x1920 [SAR 1:1 DAR 9:16], 5800 kb/s, 59.94 fps, 59.94 tbr, 60k tbn, start 0.033000 (default)
    Metadata:
      handler_name    : VideoHandler
      encoder         : Lavc62.28.101 libx264
  Stream #0:1[0x2](eng): Audio: aac (LC) (mp4a / 0x6134706D), 48000 Hz, stereo, fltp, 196 kb/s (default)
    Metadata:
      handler_name    : SoundHandler
[Parsed_ass_0 @ 000002d0241ac580] libass API version: 0x1704000
[Parsed_ass_0 @ 000002d0241ac580] libass source: commit: 0.17.4-27-g1cbba0a8818c83495114b3c2b5730410eecbdb2c
[Parsed_ass_0 @ 000002d0241ac580] Shaper: FriBidi 1.0.16 (SIMPLE) HarfBuzz-ng 14.2.0 (COMPLEX)
[Parsed_ass_0 @ 000002d0241ac580] Using font provider directwrite (with GDI)
[Parsed_ass_0 @ 000002d0241ac580] Added subtitle file: 'D:\PythonProjects\viral-cutter-ai\benchmarks\runs\20260510_160345\emeritos_gameplay\compare_podcast\cuts_raw\segment_3_04-58_65_05-58_35.ass' (7 styles, 28 events)
Stream mapping:
  Stream #0:0 -> #0:0 (h264 (native) -> h264 (libx264))
  Stream #0:1 -> #0:1 (aac (native) -> aac (native))
Press [q] to stop, [?] for help
[Parsed_ass_0 @ 000002d0241ad140] libass API version: 0x1704000
[Parsed_ass_0 @ 000002d0241ad140] libass source: commit: 0.17.4-27-g1cbba0a8818c83495114b3c2b5730410eecbdb2c
[Parsed_ass_0 @ 000002d0241ad140] Shaper: FriBidi 1.0.16 (SIMPLE) HarfBuzz-ng 14.2.0 (COMPLEX)
[Parsed_ass_0 @ 000002d0241ad140] Using font provider directwrite (with GDI)
[Parsed_ass_0 @ 000002d0241ad140] Added subtitle file: 'D:\PythonProjects\viral-cutter-ai\benchmarks\runs\20260510_160345\emeritos_gameplay\compare_podcast\cuts_raw\segment_3_04-58_65_05-58_35.ass' (7 styles, 28 events)
[Parsed_ass_0 @ 000002d0241ad140] fontselect: (Arial Black, 400, 0) -> Arial-Black, 0, Arial-Black
[Parsed_ass_0 @ 000002d0241ad140] fontselect: (Arial Black, 700, 0) -> Arial-Black, 0, Arial-Black
[libx264 @ 000002d0220e0cc0] using SAR=1/1
[libx264 @ 000002d0220e0cc0] using cpu capabilities: MMX2 SSE2Fast SSSE3 SSE4.2 AVX FMA3 BMI2 AVX2 AVX512
[libx264 @ 000002d0220e0cc0] profile High, level 4.2, 4:2:0, 8-bit
[libx264 @ 000002d0220e0cc0] 264 - core 165 r3223 0480cb0 - H.264/MPEG-4 AVC codec - Copyleft 2003-2025 - http://www.videolan.org/x264.html - options: cabac=1 ref=3 deblock=1:0:0 analyse=0x3:0x113 me=hex subme=7 psy=1 psy_rd=1.00:0.00 mixed_ref=1 me_range=16 chroma_me=1 trellis=1 8x8dct=1 cqm=0 deadzone=21,11 fast_pskip=1 chroma_qp_offset=-2 threads=24 lookahead_threads=4 sliced_threads=0 nr=0 decimate=1 interlaced=0 bluray_compat=0 constrained_intra=0 bframes=3 b_pyramid=2 b_adapt=1 b_bias=0 direct=1 weightb=1 open_gop=0 weightp=2 keyint=250 keyint_min=25 scenecut=40 intra_refresh=0 rc_lookahead=40 rc=crf mbtree=1 crf=23.0 qcomp=0.60 qpmin=0 qpmax=69 qpstep=4 ip_ratio=1.40 aq=1:1.00
Output #0, mp4, to 'D:\PythonProjects\viral-cutter-ai\benchmarks\runs\20260510_160345\emeritos_gameplay\compare_podcast\cuts_subtitles\segment_3_04-58_65_05-58_35.mp4':
  Metadata:
    major_brand     : isom
    minor_version   : 512
    compatible_brands: isomiso2avc1mp41
    encoder         : Lavf62.12.101
  Stream #0:0(und): Video: h264 (avc1 / 0x31637661), yuvj420p(pc, bt470bg/unknown/unknown, progressive), 1080x1920 [SAR 1:1 DAR 9:16], q=2-31, 59.94 fps, 60k tbn (default)
    Metadata:
      encoder         : Lavc62.28.101 libx264
      handler_name    : VideoHandler
    Side data:
      CPB properties: bitrate max/min/avg: 0/0/0 buffer size: 0 vbv_delay: N/A
  Stream #0:1(eng): Audio: aac (LC) (mp4a / 0x6134706D), 48000 Hz, stereo, fltp, 192 kb/s (default)
    Metadata:
      encoder         : Lavc62.28.101 aac
      handler_name    : SoundHandler
frame=   90 fps=0.0 q=31.0 size=     256KiB time=00:00:01.50 bitrate=1397.0kbits/s speed=2.87x elapsed=0:00:00.52    frame=  166 fps=162 q=31.0 size=    1280KiB time=00:00:02.76 bitrate=3786.4kbits/s speed= 2.7x elapsed=0:00:01.02    frame=  302 fps=196 q=31.0 size=    2048KiB time=00:00:05.03 bitrate=3330.0kbits/s speed=3.27x elapsed=0:00:01.54    frame=  382 fps=185 q=31.0 size=    2816KiB time=00:00:06.37 bitrate=3619.8kbits/s speed=3.08x elapsed=0:00:02.06    frame=  467 fps=181 q=31.0 size=    4096KiB time=00:00:07.79 bitrate=4306.8kbits/s speed=3.02x elapsed=0:00:02.57    frame=  546 fps=177 q=31.0 size=    5376KiB time=00:00:09.10 bitrate=4834.8kbits/s speed=2.95x elapsed=0:00:03.08    frame=  656 fps=182 q=31.0 size=    6144KiB time=00:00:10.94 bitrate=4598.9kbits/s speed=3.03x elapsed=0:00:03.60    frame=  814 fps=197 q=31.0 size=    6656KiB time=00:00:13.58 bitrate=4015.1kbits/s speed=3.29x elapsed=0:00:04.13    frame=  930 fps=201 q=31.0 size=    7424KiB time=00:00:15.51 bitrate=3919.8kbits/s speed=3.35x elapsed=0:00:04.63    frame= 1053 fps=204 q=31.0 size=    8448KiB time=00:00:17.56 bitrate=3939.4kbits/s speed= 3.4x elapsed=0:00:05.16    frame= 1165 fps=205 q=31.0 size=    8960KiB time=00:00:19.43 bitrate=3776.5kbits/s speed=3.43x elapsed=0:00:05.67    frame= 1300 fps=210 q=31.0 size=    9984KiB time=00:00:21.68 bitrate=3771.1kbits/s speed=3.51x elapsed=0:00:06.18    frame= 1491 fps=222 q=31.0 size=   10496KiB time=00:00:24.87 bitrate=3456.6kbits/s speed=3.71x elapsed=0:00:06.70    frame= 1694 fps=235 q=31.0 size=   11008KiB time=00:00:28.26 bitrate=3190.8kbits/s speed=3.92x elapsed=0:00:07.21    frame= 1828 fps=237 q=31.0 size=   11776KiB time=00:00:30.49 bitrate=3163.2kbits/s speed=3.95x elapsed=0:00:07.72    frame= 1928 fps=233 q=31.0 size=   12800KiB time=00:00:32.16 bitrate=3260.0kbits/s speed=3.89x elapsed=0:00:08.26    frame= 2015 fps=230 q=31.0 size=   13568KiB time=00:00:33.61 bitrate=3306.4kbits/s speed=3.83x elapsed=0:00:08.77    frame= 2114 fps=227 q=31.0 size=   14592KiB time=00:00:35.26 bitrate=3389.4kbits/s speed=3.79x elapsed=0:00:09.30    frame= 2183 fps=223 q=31.0 size=   15360KiB time=00:00:36.41 bitrate=3455.0kbits/s speed=3.71x elapsed=0:00:09.80    frame= 2249 fps=218 q=31.0 size=   16384KiB time=00:00:37.52 bitrate=3577.2kbits/s speed=3.63x elapsed=0:00:10.32    frame= 2307 fps=213 q=31.0 size=   17664KiB time=00:00:38.48 bitrate=3759.7kbits/s speed=3.55x elapsed=0:00:10.85    frame= 2379 fps=209 q=31.0 size=   18688KiB time=00:00:39.68 bitrate=3857.2kbits/s speed=3.49x elapsed=0:00:11.36    frame= 2461 fps=207 q=31.0 size=   19968KiB time=00:00:41.05 bitrate=3984.1kbits/s speed=3.46x elapsed=0:00:11.87    frame= 2590 fps=209 q=31.0 size=   21248KiB time=00:00:43.20 bitrate=4028.3kbits/s speed=3.49x elapsed=0:00:12.39    frame= 2702 fps=209 q=31.0 size=   22016KiB time=00:00:45.07 bitrate=4000.9kbits/s speed=3.49x elapsed=0:00:12.90    frame= 2793 fps=208 q=31.0 size=   23040KiB time=00:00:46.59 bitrate=4050.6kbits/s speed=3.47x elapsed=0:00:13.41    frame= 2894 fps=208 q=31.0 size=   24064KiB time=00:00:48.28 bitrate=4083.0kbits/s speed=3.47x elapsed=0:00:13.93    frame= 2989 fps=207 q=31.0 size=   24832KiB time=00:00:49.86 bitrate=4079.4kbits/s speed=3.45x elapsed=0:00:14.45    frame= 3069 fps=205 q=31.0 size=   26112KiB time=00:00:51.20 bitrate=4177.8kbits/s speed=3.42x elapsed=0:00:14.96    frame= 3151 fps=204 q=31.0 size=   26880KiB time=00:00:52.56 bitrate=4188.8kbits/s speed= 3.4x elapsed=0:00:15.48    frame= 3251 fps=203 q=31.0 size=   27904KiB time=00:00:54.23 bitrate=4214.6kbits/s speed=3.39x elapsed=0:00:16.00    frame= 3348 fps=203 q=31.0 size=   29184KiB time=00:00:55.85 bitrate=4280.2kbits/s speed=3.38x elapsed=0:00:16.51    frame= 3451 fps=203 q=31.0 size=   29952KiB time=00:00:57.57 bitrate=4261.8kbits/s speed=3.38x elapsed=0:00:17.03    frame= 3573 fps=204 q=-1.0 size=   30976KiB time=N/A bitrate=N/A speed=N/A elapsed=0:00:17.54    [out#0/mp4 @ 000002d0220601c0] video:29704KiB audio:1433KiB subtitle:0KiB other streams:0KiB global headers:0KiB muxing overhead: 0.297166%
frame= 3577 fps=203 q=-1.0 Lsize=   31229KiB time=00:00:59.67 bitrate=4287.0kbits/s speed=3.39x elapsed=0:00:17.59    
[libx264 @ 000002d0220e0cc0] frame I:22    Avg QP:20.99  size: 62719
[libx264 @ 000002d0220e0cc0] frame P:1694  Avg QP:23.74  size: 13469
[libx264 @ 000002d0220e0cc0] frame B:1861  Avg QP:26.67  size:  3342
[libx264 @ 000002d0220e0cc0] consecutive B-frames:  8.2% 65.7%  4.4% 21.7%
[libx264 @ 000002d0220e0cc0] mb I  I16..4: 16.2% 68.8% 15.0%
[libx264 @ 000002d0220e0cc0] mb P  I16..4:  6.7% 14.9%  0.5%  P16..4: 25.9%  2.5%  1.0%  0.0%  0.0%    skip:48.5%
[libx264 @ 000002d0220e0cc0] mb B  I16..4:  0.8%  1.3%  0.0%  B16..8: 17.8%  0.5%  0.0%  direct: 0.5%  skip:79.0%  L0:38.5% L1:59.7% BI: 1.8%
[libx264 @ 000002d0220e0cc0] 8x8 transform intra:66.9% inter:86.9%
[libx264 @ 000002d0220e0cc0] coded y,uvDC,uvAC intra: 20.9% 27.7% 3.4% inter: 3.4% 5.8% 0.1%
[libx264 @ 000002d0220e0cc0] i16 v,h,dc,p: 23% 43%  8% 26%
[libx264 @ 000002d0220e0cc0] i8 v,h,dc,ddl,ddr,vr,hd,vl,hu: 25% 27% 25%  3%  4%  3%  5%  3%  4%
[libx264 @ 000002d0220e0cc0] i4 v,h,dc,ddl,ddr,vr,hd,vl,hu: 24% 31% 11%  5%  7%  6%  7%  5%  5%
[libx264 @ 000002d0220e0cc0] i8c dc,h,v,p: 64% 19% 14%  3%
[libx264 @ 000002d0220e0cc0] Weighted P-Frames: Y:1.4% UV:1.2%
[libx264 @ 000002d0220e0cc0] ref P L0: 75.7%  9.6% 11.9%  2.8%  0.0%
[libx264 @ 000002d0220e0cc0] ref B L0: 91.1%  8.4%  0.5%
[libx264 @ 000002d0220e0cc0] ref B L1: 99.3%  0.7%
[libx264 @ 000002d0220e0cc0] kb/s:4077.47
[aac @ 000002d02480c300] Qavg: 958.694
ffmpeg version 8.1.1-full_build-www.gyan.dev Copyright (c) 2000-2026 the FFmpeg developers
  built with gcc 15.2.0 (Rev13, Built by MSYS2 project)
  configuration: --enable-gpl --enable-version3 --enable-static --disable-w32threads --disable-autodetect --enable-cairo --enable-fontconfig --enable-iconv --enable-gnutls --enable-lcms2 --enable-libxml2 --enable-gmp --enable-bzlib --enable-lzma --enable-libsnappy --enable-zlib --enable-librist --enable-libsrt --enable-libssh --enable-libzmq --enable-avisynth --enable-libbluray --enable-libcaca --enable-libdvdnav --enable-libdvdread --enable-sdl2 --enable-libaribb24 --enable-libaribcaption --enable-libdav1d --enable-libdavs2 --enable-libopenjpeg --enable-libquirc --enable-libuavs3d --enable-libxevd --enable-libzvbi --enable-liboapv --enable-libqrencode --enable-librav1e --enable-libsvtav1 --enable-libvvenc --enable-libwebp --enable-libx264 --enable-libx265 --enable-libxavs2 --enable-libxeve --enable-libxvid --enable-libaom --enable-libjxl --enable-libsvtjpegxs --enable-libvpx --enable-mediafoundation --enable-libass --enable-frei0r --enable-libfreetype --enable-libfribidi --enable-libharfbuzz --enable-liblensfun --enable-libvidstab --enable-libvmaf --enable-libzimg --enable-amf --enable-cuda-llvm --enable-cuvid --enable-dxva2 --enable-d3d11va --enable-d3d12va --enable-ffnvcodec --enable-libvpl --enable-nvdec --enable-nvenc --enable-vaapi --enable-libshaderc --enable-vulkan --enable-libplacebo --enable-opencl --enable-libcdio --enable-openal --enable-libgme --enable-libmodplug --enable-libopenmpt --enable-libopencore-amrwb --enable-libmp3lame --enable-libshine --enable-libtheora --enable-libtwolame --enable-libvo-amrwbenc --enable-libcodec2 --enable-libilbc --enable-libgsm --enable-liblc3 --enable-libopencore-amrnb --enable-libopus --enable-libspeex --enable-libvorbis --enable-ladspa --enable-libbs2b --enable-libflite --enable-libmysofa --enable-librubberband --enable-libsoxr --enable-chromaprint --enable-whisper
  libavutil      60. 26.101 / 60. 26.101
  libavcodec     62. 28.101 / 62. 28.101
  libavformat    62. 12.101 / 62. 12.101
  libavdevice    62.  3.101 / 62.  3.101
  libavfilter    11. 14.101 / 11. 14.101
  libswscale      9.  5.101 /  9.  5.101
  libswresample   6.  3.101 /  6.  3.101
Input #0, mov,mp4,m4a,3gp,3g2,mj2, from 'D:\PythonProjects\viral-cutter-ai\benchmarks\runs\20260510_160345\emeritos_gameplay\compare_podcast\cuts_raw\segment_4_00-06_56_00-45_74.mp4':
  Metadata:
    major_brand     : isom
    minor_version   : 512
    compatible_brands: isomiso2avc1mp41
    encoder         : Lavf62.12.101
  Duration: 00:00:39.19, start: 0.000000, bitrate: 5525 kb/s
  Stream #0:0[0x1](und): Video: h264 (High) (avc1 / 0x31637661), yuvj420p(pc, bt470bg/unknown/unknown, progressive), 1080x1920 [SAR 1:1 DAR 9:16], 5320 kb/s, 59.94 fps, 59.94 tbr, 60k tbn, start 0.033000 (default)
    Metadata:
      handler_name    : VideoHandler
      encoder         : Lavc62.28.101 libx264
  Stream #0:1[0x2](eng): Audio: aac (LC) (mp4a / 0x6134706D), 48000 Hz, stereo, fltp, 196 kb/s (default)
    Metadata:
      handler_name    : SoundHandler
[Parsed_ass_0 @ 000001f53af7d700] libass API version: 0x1704000
[Parsed_ass_0 @ 000001f53af7d700] libass source: commit: 0.17.4-27-g1cbba0a8818c83495114b3c2b5730410eecbdb2c
[Parsed_ass_0 @ 000001f53af7d700] Shaper: FriBidi 1.0.16 (SIMPLE) HarfBuzz-ng 14.2.0 (COMPLEX)
[Parsed_ass_0 @ 000001f53af7d700] Using font provider directwrite (with GDI)
[Parsed_ass_0 @ 000001f53af7d700] Added subtitle file: 'D:\PythonProjects\viral-cutter-ai\benchmarks\runs\20260510_160345\emeritos_gameplay\compare_podcast\cuts_raw\segment_4_00-06_56_00-45_74.ass' (7 styles, 10 events)
Stream mapping:
  Stream #0:0 -> #0:0 (h264 (native) -> h264 (libx264))
  Stream #0:1 -> #0:1 (aac (native) -> aac (native))
Press [q] to stop, [?] for help
[Parsed_ass_0 @ 000001f53af7ed40] libass API version: 0x1704000
[Parsed_ass_0 @ 000001f53af7ed40] libass source: commit: 0.17.4-27-g1cbba0a8818c83495114b3c2b5730410eecbdb2c
[Parsed_ass_0 @ 000001f53af7ed40] Shaper: FriBidi 1.0.16 (SIMPLE) HarfBuzz-ng 14.2.0 (COMPLEX)
[Parsed_ass_0 @ 000001f53af7ed40] Using font provider directwrite (with GDI)
[Parsed_ass_0 @ 000001f53af7ed40] Added subtitle file: 'D:\PythonProjects\viral-cutter-ai\benchmarks\runs\20260510_160345\emeritos_gameplay\compare_podcast\cuts_raw\segment_4_00-06_56_00-45_74.ass' (7 styles, 10 events)
[Parsed_ass_0 @ 000001f53af7ed40] fontselect: (Arial Black, 400, 0) -> Arial-Black, 0, Arial-Black
[Parsed_ass_0 @ 000001f53af7ed40] fontselect: (Arial Black, 700, 0) -> Arial-Black, 0, Arial-Black
[libx264 @ 000001f53af7fec0] using SAR=1/1
[libx264 @ 000001f53af7fec0] using cpu capabilities: MMX2 SSE2Fast SSSE3 SSE4.2 AVX FMA3 BMI2 AVX2 AVX512
[libx264 @ 000001f53af7fec0] profile High, level 4.2, 4:2:0, 8-bit
[libx264 @ 000001f53af7fec0] 264 - core 165 r3223 0480cb0 - H.264/MPEG-4 AVC codec - Copyleft 2003-2025 - http://www.videolan.org/x264.html - options: cabac=1 ref=3 deblock=1:0:0 analyse=0x3:0x113 me=hex subme=7 psy=1 psy_rd=1.00:0.00 mixed_ref=1 me_range=16 chroma_me=1 trellis=1 8x8dct=1 cqm=0 deadzone=21,11 fast_pskip=1 chroma_qp_offset=-2 threads=24 lookahead_threads=4 sliced_threads=0 nr=0 decimate=1 interlaced=0 bluray_compat=0 constrained_intra=0 bframes=3 b_pyramid=2 b_adapt=1 b_bias=0 direct=1 weightb=1 open_gop=0 weightp=2 keyint=250 keyint_min=25 scenecut=40 intra_refresh=0 rc_lookahead=40 rc=crf mbtree=1 crf=23.0 qcomp=0.60 qpmin=0 qpmax=69 qpstep=4 ip_ratio=1.40 aq=1:1.00
Output #0, mp4, to 'D:\PythonProjects\viral-cutter-ai\benchmarks\runs\20260510_160345\emeritos_gameplay\compare_podcast\cuts_subtitles\segment_4_00-06_56_00-45_74.mp4':
  Metadata:
    major_brand     : isom
    minor_version   : 512
    compatible_brands: isomiso2avc1mp41
    encoder         : Lavf62.12.101
  Stream #0:0(und): Video: h264 (avc1 / 0x31637661), yuvj420p(pc, bt470bg/unknown/unknown, progressive), 1080x1920 [SAR 1:1 DAR 9:16], q=2-31, 59.94 fps, 60k tbn (default)
    Metadata:
      encoder         : Lavc62.28.101 libx264
      handler_name    : VideoHandler
    Side data:
      CPB properties: bitrate max/min/avg: 0/0/0 buffer size: 0 vbv_delay: N/A
  Stream #0:1(eng): Audio: aac (LC) (mp4a / 0x6134706D), 48000 Hz, stereo, fltp, 192 kb/s (default)
    Metadata:
      encoder         : Lavc62.28.101 aac
      handler_name    : SoundHandler
frame=   77 fps=0.0 q=31.0 size=     512KiB time=00:00:01.28 bitrate=3265.3kbits/s speed=2.47x elapsed=0:00:00.52    frame=  243 fps=236 q=31.0 size=    1280KiB time=00:00:04.05 bitrate=2586.6kbits/s speed=3.94x elapsed=0:00:01.02    frame=  356 fps=230 q=31.0 size=    1792KiB time=00:00:05.93 bitrate=2471.8kbits/s speed=3.84x elapsed=0:00:01.54    frame=  469 fps=228 q=31.0 size=    2816KiB time=00:00:07.82 bitrate=2948.3kbits/s speed= 3.8x elapsed=0:00:02.06    frame=  573 fps=222 q=31.0 size=    3584KiB time=00:00:09.55 bitrate=3071.3kbits/s speed=3.71x elapsed=0:00:02.57    frame=  680 fps=220 q=31.0 size=    4352KiB time=00:00:11.34 bitrate=3142.6kbits/s speed=3.67x elapsed=0:00:03.09    frame=  786 fps=218 q=31.0 size=    5376KiB time=00:00:13.11 bitrate=3358.5kbits/s speed=3.63x elapsed=0:00:03.61    frame=  897 fps=217 q=31.0 size=    6400KiB time=00:00:14.96 bitrate=3503.5kbits/s speed=3.63x elapsed=0:00:04.12    frame= 1010 fps=217 q=31.0 size=    7424KiB time=00:00:16.85 bitrate=3609.3kbits/s speed=3.63x elapsed=0:00:04.64    frame= 1117 fps=217 q=31.0 size=    8192KiB time=00:00:18.63 bitrate=3601.2kbits/s speed=3.61x elapsed=0:00:05.15    frame= 1215 fps=214 q=31.0 size=    9216KiB time=00:00:20.27 bitrate=3724.6kbits/s speed=3.57x elapsed=0:00:05.67    frame= 1321 fps=214 q=31.0 size=   10240KiB time=00:00:22.03 bitrate=3806.3kbits/s speed=3.56x elapsed=0:00:06.18    frame= 1433 fps=214 q=31.0 size=   11008KiB time=00:00:23.90 bitrate=3772.0kbits/s speed=3.57x elapsed=0:00:06.70    frame= 1544 fps=214 q=31.0 size=   11776KiB time=00:00:25.75 bitrate=3745.1kbits/s speed=3.57x elapsed=0:00:07.21    frame= 1659 fps=215 q=31.0 size=   12800KiB time=00:00:27.67 bitrate=3788.5kbits/s speed=3.58x elapsed=0:00:07.73    frame= 1781 fps=216 q=31.0 size=   13824KiB time=00:00:29.71 bitrate=3811.3kbits/s speed= 3.6x elapsed=0:00:08.24    frame= 1885 fps=215 q=31.0 size=   14336KiB time=00:00:31.44 bitrate=3734.4kbits/s speed=3.59x elapsed=0:00:08.76    frame= 2006 fps=216 q=31.0 size=   15360KiB time=00:00:33.46 bitrate=3759.8kbits/s speed= 3.6x elapsed=0:00:09.28    frame= 2122 fps=217 q=31.0 size=   16384KiB time=00:00:35.40 bitrate=3791.3kbits/s speed=3.61x elapsed=0:00:09.79    frame= 2231 fps=216 q=31.0 size=   17152KiB time=00:00:37.22 bitrate=3775.1kbits/s speed=3.61x elapsed=0:00:10.31    [out#0/mp4 @ 000001f53aeffcc0] video:17183KiB audio:940KiB subtitle:0KiB other streams:0KiB global headers:0KiB muxing overhead: 0.338800%
frame= 2347 fps=219 q=-1.0 Lsize=   18184KiB time=00:00:39.15 bitrate=3804.4kbits/s speed=3.65x elapsed=0:00:10.71    
[libx264 @ 000001f53af7fec0] frame I:17    Avg QP:21.06  size: 55441
[libx264 @ 000001f53af7fec0] frame P:1019  Avg QP:23.57  size: 12310
[libx264 @ 000001f53af7fec0] frame B:1311  Avg QP:26.42  size:  3133
[libx264 @ 000001f53af7fec0] consecutive B-frames:  6.8% 54.5%  5.4% 33.4%
[libx264 @ 000001f53af7fec0] mb I  I16..4: 18.0% 71.4% 10.6%
[libx264 @ 000001f53af7fec0] mb P  I16..4:  5.3% 10.0%  0.3%  P16..4: 31.0%  2.4%  1.1%  0.0%  0.0%    skip:49.9%
[libx264 @ 000001f53af7fec0] mb B  I16..4:  0.6%  0.8%  0.0%  B16..8: 20.1%  0.5%  0.0%  direct: 0.7%  skip:77.3%  L0:41.0% L1:57.2% BI: 1.7%
[libx264 @ 000001f53af7fec0] 8x8 transform intra:64.1% inter:91.9%
[libx264 @ 000001f53af7fec0] coded y,uvDC,uvAC intra: 20.0% 42.3% 6.4% inter: 2.8% 8.6% 0.0%
[libx264 @ 000001f53af7fec0] i16 v,h,dc,p: 26% 41%  8% 26%
[libx264 @ 000001f53af7fec0] i8 v,h,dc,ddl,ddr,vr,hd,vl,hu: 27% 22% 29%  3%  4%  4%  4%  3%  3%
[libx264 @ 000001f53af7fec0] i4 v,h,dc,ddl,ddr,vr,hd,vl,hu: 30% 25%  9%  4%  8%  8%  7%  5%  4%
[libx264 @ 000001f53af7fec0] i8c dc,h,v,p: 53% 23% 17%  7%
[libx264 @ 000001f53af7fec0] Weighted P-Frames: Y:0.9% UV:0.2%
[libx264 @ 000001f53af7fec0] ref P L0: 74.4%  7.4% 14.4%  3.8%  0.0%
[libx264 @ 000001f53af7fec0] ref B L0: 90.9%  8.2%  0.9%
[libx264 @ 000001f53af7fec0] ref B L1: 98.7%  1.3%
[libx264 @ 000001f53af7fec0] kb/s:3594.78
[aac @ 000001f53cb88fc0] Qavg: 871.524
ffmpeg version 8.1.1-full_build-www.gyan.dev Copyright (c) 2000-2026 the FFmpeg developers
  built with gcc 15.2.0 (Rev13, Built by MSYS2 project)
  configuration: --enable-gpl --enable-version3 --enable-static --disable-w32threads --disable-autodetect --enable-cairo --enable-fontconfig --enable-iconv --enable-gnutls --enable-lcms2 --enable-libxml2 --enable-gmp --enable-bzlib --enable-lzma --enable-libsnappy --enable-zlib --enable-librist --enable-libsrt --enable-libssh --enable-libzmq --enable-avisynth --enable-libbluray --enable-libcaca --enable-libdvdnav --enable-libdvdread --enable-sdl2 --enable-libaribb24 --enable-libaribcaption --enable-libdav1d --enable-libdavs2 --enable-libopenjpeg --enable-libquirc --enable-libuavs3d --enable-libxevd --enable-libzvbi --enable-liboapv --enable-libqrencode --enable-librav1e --enable-libsvtav1 --enable-libvvenc --enable-libwebp --enable-libx264 --enable-libx265 --enable-libxavs2 --enable-libxeve --enable-libxvid --enable-libaom --enable-libjxl --enable-libsvtjpegxs --enable-libvpx --enable-mediafoundation --enable-libass --enable-frei0r --enable-libfreetype --enable-libfribidi --enable-libharfbuzz --enable-liblensfun --enable-libvidstab --enable-libvmaf --enable-libzimg --enable-amf --enable-cuda-llvm --enable-cuvid --enable-dxva2 --enable-d3d11va --enable-d3d12va --enable-ffnvcodec --enable-libvpl --enable-nvdec --enable-nvenc --enable-vaapi --enable-libshaderc --enable-vulkan --enable-libplacebo --enable-opencl --enable-libcdio --enable-openal --enable-libgme --enable-libmodplug --enable-libopenmpt --enable-libopencore-amrwb --enable-libmp3lame --enable-libshine --enable-libtheora --enable-libtwolame --enable-libvo-amrwbenc --enable-libcodec2 --enable-libilbc --enable-libgsm --enable-liblc3 --enable-libopencore-amrnb --enable-libopus --enable-libspeex --enable-libvorbis --enable-ladspa --enable-libbs2b --enable-libflite --enable-libmysofa --enable-librubberband --enable-libsoxr --enable-chromaprint --enable-whisper
  libavutil      60. 26.101 / 60. 26.101
  libavcodec     62. 28.101 / 62. 28.101
  libavformat    62. 12.101 / 62. 12.101
  libavdevice    62.  3.101 / 62.  3.101
  libavfilter    11. 14.101 / 11. 14.101
  libswscale      9.  5.101 /  9.  5.101
  libswresample   6.  3.101 /  6.  3.101
Input #0, mov,mp4,m4a,3gp,3g2,mj2, from 'D:\PythonProjects\viral-cutter-ai\benchmarks\runs\20260510_160345\emeritos_gameplay\compare_podcast\cuts_raw\segment_5_07-54_74_08-25_84.mp4':
  Metadata:
    major_brand     : isom
    minor_version   : 512
    compatible_brands: isomiso2avc1mp41
    encoder         : Lavf62.12.101
  Duration: 00:00:31.10, start: 0.000000, bitrate: 6985 kb/s
  Stream #0:0[0x1](und): Video: h264 (High) (avc1 / 0x31637661), yuvj420p(pc, bt470bg/unknown/unknown, progressive), 1080x1920 [SAR 1:1 DAR 9:16], 6785 kb/s, 59.94 fps, 59.94 tbr, 60k tbn, start 0.033000 (default)
    Metadata:
      handler_name    : VideoHandler
      encoder         : Lavc62.28.101 libx264
  Stream #0:1[0x2](eng): Audio: aac (LC) (mp4a / 0x6134706D), 48000 Hz, stereo, fltp, 196 kb/s (default)
    Metadata:
      handler_name    : SoundHandler
[Parsed_ass_0 @ 0000024290ba2f80] libass API version: 0x1704000
[Parsed_ass_0 @ 0000024290ba2f80] libass source: commit: 0.17.4-27-g1cbba0a8818c83495114b3c2b5730410eecbdb2c
[Parsed_ass_0 @ 0000024290ba2f80] Shaper: FriBidi 1.0.16 (SIMPLE) HarfBuzz-ng 14.2.0 (COMPLEX)
[Parsed_ass_0 @ 0000024290ba2f80] Using font provider directwrite (with GDI)
[Parsed_ass_0 @ 0000024290ba2f80] Added subtitle file: 'D:\PythonProjects\viral-cutter-ai\benchmarks\runs\20260510_160345\emeritos_gameplay\compare_podcast\cuts_raw\segment_5_07-54_74_08-25_84.ass' (7 styles, 20 events)
Stream mapping:
  Stream #0:0 -> #0:0 (h264 (native) -> h264 (libx264))
  Stream #0:1 -> #0:1 (aac (native) -> aac (native))
Press [q] to stop, [?] for help
[Parsed_ass_0 @ 0000024290ba21c0] libass API version: 0x1704000
[Parsed_ass_0 @ 0000024290ba21c0] libass source: commit: 0.17.4-27-g1cbba0a8818c83495114b3c2b5730410eecbdb2c
[Parsed_ass_0 @ 0000024290ba21c0] Shaper: FriBidi 1.0.16 (SIMPLE) HarfBuzz-ng 14.2.0 (COMPLEX)
[Parsed_ass_0 @ 0000024290ba21c0] Using font provider directwrite (with GDI)
[Parsed_ass_0 @ 0000024290ba21c0] Added subtitle file: 'D:\PythonProjects\viral-cutter-ai\benchmarks\runs\20260510_160345\emeritos_gameplay\compare_podcast\cuts_raw\segment_5_07-54_74_08-25_84.ass' (7 styles, 20 events)
[Parsed_ass_0 @ 0000024290ba21c0] fontselect: (Arial Black, 400, 0) -> Arial-Black, 0, Arial-Black
[libx264 @ 0000024290b61d40] using SAR=1/1
[libx264 @ 0000024290b61d40] using cpu capabilities: MMX2 SSE2Fast SSSE3 SSE4.2 AVX FMA3 BMI2 AVX2 AVX512
[libx264 @ 0000024290b61d40] profile High, level 4.2, 4:2:0, 8-bit
[libx264 @ 0000024290b61d40] 264 - core 165 r3223 0480cb0 - H.264/MPEG-4 AVC codec - Copyleft 2003-2025 - http://www.videolan.org/x264.html - options: cabac=1 ref=3 deblock=1:0:0 analyse=0x3:0x113 me=hex subme=7 psy=1 psy_rd=1.00:0.00 mixed_ref=1 me_range=16 chroma_me=1 trellis=1 8x8dct=1 cqm=0 deadzone=21,11 fast_pskip=1 chroma_qp_offset=-2 threads=24 lookahead_threads=4 sliced_threads=0 nr=0 decimate=1 interlaced=0 bluray_compat=0 constrained_intra=0 bframes=3 b_pyramid=2 b_adapt=1 b_bias=0 direct=1 weightb=1 open_gop=0 weightp=2 keyint=250 keyint_min=25 scenecut=40 intra_refresh=0 rc_lookahead=40 rc=crf mbtree=1 crf=23.0 qcomp=0.60 qpmin=0 qpmax=69 qpstep=4 ip_ratio=1.40 aq=1:1.00
Output #0, mp4, to 'D:\PythonProjects\viral-cutter-ai\benchmarks\runs\20260510_160345\emeritos_gameplay\compare_podcast\cuts_subtitles\segment_5_07-54_74_08-25_84.mp4':
  Metadata:
    major_brand     : isom
    minor_version   : 512
    compatible_brands: isomiso2avc1mp41
    encoder         : Lavf62.12.101
  Stream #0:0(und): Video: h264 (avc1 / 0x31637661), yuvj420p(pc, bt470bg/unknown/unknown, progressive), 1080x1920 [SAR 1:1 DAR 9:16], q=2-31, 59.94 fps, 60k tbn (default)
    Metadata:
      encoder         : Lavc62.28.101 libx264
      handler_name    : VideoHandler
    Side data:
      CPB properties: bitrate max/min/avg: 0/0/0 buffer size: 0 vbv_delay: N/A
  Stream #0:1(eng): Audio: aac (LC) (mp4a / 0x6134706D), 48000 Hz, stereo, fltp, 192 kb/s (default)
    Metadata:
      encoder         : Lavc62.28.101 aac
      handler_name    : SoundHandler
frame=   41 fps=0.0 q=31.0 size=     256KiB time=00:00:00.68 bitrate=3066.5kbits/s speed=1.34x elapsed=0:00:00.50    frame=  129 fps=126 q=31.0 size=    1536KiB time=00:00:02.15 bitrate=5846.8kbits/s speed= 2.1x elapsed=0:00:01.02    frame=  219 fps=141 q=31.0 size=    2560KiB time=00:00:03.65 bitrate=5740.0kbits/s speed=2.35x elapsed=0:00:01.55    [Parsed_ass_0 @ 0000024290ba21c0] fontselect: (Arial Black, 700, 0) -> Arial-Black, 0, Arial-Black
frame=  306 fps=149 q=31.0 size=    3840KiB time=00:00:05.10 bitrate=6162.0kbits/s speed=2.48x elapsed=0:00:02.05    frame=  384 fps=149 q=31.0 size=    5120KiB time=00:00:06.40 bitrate=6547.1kbits/s speed=2.48x elapsed=0:00:02.57    frame=  465 fps=151 q=31.0 size=    6144KiB time=00:00:07.75 bitrate=6488.0kbits/s speed=2.51x elapsed=0:00:03.08    frame=  553 fps=153 q=31.0 size=    7168KiB time=00:00:09.22 bitrate=6364.8kbits/s speed=2.56x elapsed=0:00:03.60    frame=  678 fps=165 q=31.0 size=    8192KiB time=00:00:11.31 bitrate=5932.9kbits/s speed=2.75x elapsed=0:00:04.11    frame=  773 fps=167 q=31.0 size=    8960KiB time=00:00:12.89 bitrate=5691.6kbits/s speed=2.78x elapsed=0:00:04.63    frame=  889 fps=173 q=31.0 size=    9984KiB time=00:00:14.83 bitrate=5514.6kbits/s speed=2.88x elapsed=0:00:05.15    frame= 1061 fps=187 q=31.0 size=   10752KiB time=00:00:17.70 bitrate=4976.0kbits/s speed=3.12x elapsed=0:00:05.67    frame= 1170 fps=189 q=31.0 size=   11264KiB time=00:00:19.51 bitrate=4727.3kbits/s speed=3.16x elapsed=0:00:06.18    frame= 1248 fps=186 q=31.0 size=   12288KiB time=00:00:20.82 bitrate=4834.8kbits/s speed=3.11x elapsed=0:00:06.69    frame= 1331 fps=185 q=31.0 size=   13312KiB time=00:00:22.20 bitrate=4911.0kbits/s speed=3.08x elapsed=0:00:07.21    frame= 1423 fps=184 q=31.0 size=   14336KiB time=00:00:23.74 bitrate=4946.9kbits/s speed=3.07x elapsed=0:00:07.72    frame= 1525 fps=185 q=31.0 size=   15616KiB time=00:00:25.44 bitrate=5028.2kbits/s speed=3.09x elapsed=0:00:08.24    frame= 1625 fps=186 q=31.0 size=   16640KiB time=00:00:27.11 bitrate=5028.2kbits/s speed=3.09x elapsed=0:00:08.76    frame= 1746 fps=188 q=31.0 size=   17664KiB time=00:00:29.12 bitrate=4967.7kbits/s speed=3.14x elapsed=0:00:09.28    [out#0/mp4 @ 0000024290ae1b00] video:18236KiB audio:743KiB subtitle:0KiB other streams:0KiB global headers:0KiB muxing overhead: 0.253864%
frame= 1862 fps=193 q=-1.0 Lsize=   19027KiB time=00:00:31.06 bitrate=5017.7kbits/s speed=3.21x elapsed=0:00:09.67    
[libx264 @ 0000024290b61d40] frame I:9     Avg QP:21.77  size: 68321
[libx264 @ 0000024290b61d40] frame P:895   Avg QP:24.36  size: 15424
[libx264 @ 0000024290b61d40] frame B:958   Avg QP:27.05  size:  4440
[libx264 @ 0000024290b61d40] consecutive B-frames: 12.4% 54.8%  7.1% 25.8%
[libx264 @ 0000024290b61d40] mb I  I16..4: 18.0% 64.8% 17.2%
[libx264 @ 0000024290b61d40] mb P  I16..4:  7.8% 17.4%  0.6%  P16..4: 30.8%  2.7%  1.0%  0.0%  0.0%    skip:39.7%
[libx264 @ 0000024290b61d40] mb B  I16..4:  0.8%  1.4%  0.0%  B16..8: 24.0%  0.8%  0.1%  direct: 0.5%  skip:72.4%  L0:39.4% L1:59.1% BI: 1.5%
[libx264 @ 0000024290b61d40] 8x8 transform intra:67.1% inter:88.8%
[libx264 @ 0000024290b61d40] coded y,uvDC,uvAC intra: 21.7% 27.4% 2.9% inter: 4.2% 6.3% 0.0%
[libx264 @ 0000024290b61d40] i16 v,h,dc,p: 23% 43%  8% 26%
[libx264 @ 0000024290b61d40] i8 v,h,dc,ddl,ddr,vr,hd,vl,hu: 24% 27% 26%  3%  4%  3%  5%  3%  4%
[libx264 @ 0000024290b61d40] i4 v,h,dc,ddl,ddr,vr,hd,vl,hu: 24% 33% 11%  5%  6%  5%  7%  4%  5%
[libx264 @ 0000024290b61d40] i8c dc,h,v,p: 63% 20% 14%  3%
[libx264 @ 0000024290b61d40] Weighted P-Frames: Y:0.1% UV:0.0%
[libx264 @ 0000024290b61d40] ref P L0: 76.0%  9.7% 11.4%  2.8%  0.0%
[libx264 @ 0000024290b61d40] ref B L0: 92.1%  7.3%  0.6%
[libx264 @ 0000024290b61d40] ref B L1: 99.0%  1.0%
[libx264 @ 0000024290b61d40] kb/s:4808.82
[aac @ 0000024292a47680] Qavg: 643.196
Loading transcript: D:\PythonProjects\viral-cutter-ai\benchmarks\runs\20260510_160345\emeritos_gameplay\shared\transcript.json
Found 5 cut videos

Processing: segment_1_17-47_41_18-35_79.mp4
Raw video already present: segment_1_17-47_41_18-35_79.mp4
  Adding subtitles: segment_1_17-47_41_18-35_79.mp4
Added subtitles: segment_1_17-47_41_18-35_79.mp4

Processing: segment_2_16-38_20_17-28_11.mp4
Raw video already present: segment_2_16-38_20_17-28_11.mp4
  Adding subtitles: segment_2_16-38_20_17-28_11.mp4
Added subtitles: segment_2_16-38_20_17-28_11.mp4

Processing: segment_3_04-58_65_05-58_35.mp4
Raw video already present: segment_3_04-58_65_05-58_35.mp4
  Adding subtitles: segment_3_04-58_65_05-58_35.mp4
Added subtitles: segment_3_04-58_65_05-58_35.mp4

Processing: segment_4_00-06_56_00-45_74.mp4
Raw video already present: segment_4_00-06_56_00-45_74.mp4
  Adding subtitles: segment_4_00-06_56_00-45_74.mp4
Added subtitles: segment_4_00-06_56_00-45_74.mp4

Processing: segment_5_07-54_74_08-25_84.mp4
Raw video already present: segment_5_07-54_74_08-25_84.mp4
  Adding subtitles: segment_5_07-54_74_08-25_84.mp4
Added subtitles: segment_5_07-54_74_08-25_84.mp4

Done!
  Raw videos: D:\PythonProjects\viral-cutter-ai\benchmarks\runs\20260510_160345\emeritos_gameplay\compare_podcast\cuts_raw
  Subtitled videos: D:\PythonProjects\viral-cutter-ai\benchmarks\runs\20260510_160345\emeritos_gameplay\compare_podcast\cuts_subtitles
$ D:\PythonProjects\viral-cutter-ai\.venv\Scripts\python.exe D:\PythonProjects\viral-cutter-ai\subtitler.py --transcript D:\PythonProjects\viral-cutter-ai\benchmarks\runs\20260510_160345\emeritos_gameplay\shared\transcript.json --input-dir D:\PythonProjects\viral-cutter-ai\benchmarks\runs\20260510_160345\emeritos_gameplay\compare_podcast\cuts_raw --output-raw D:\PythonProjects\viral-cutter-ai\benchmarks\runs\20260510_160345\emeritos_gameplay\compare_podcast\cuts_raw --output-subs D:\PythonProjects\viral-cutter-ai\benchmarks\runs\20260510_160345\emeritos_gameplay\compare_podcast\cuts_subtitles

